<svg height="507pt" viewBox="0 0 507 507.312" width="507pt" xmlns="http://www.w3.org/2000/svg"><path d="m232.011719 118.542969-19.28125-25.535157c-9.582031 7.230469-18.238281 15.632813-25.726563 24.976563l24.945313 20.03125c5.855469-7.28125 12.589843-13.824219 20.0625-19.472656zm0 0" fill="#53bdf2"/><path d="m363.46875 0v32h89.375l-63.601562 63.601562c-24.636719-19.730468-55.820313-31.601562-89.773438-31.601562-19.28125 0-38 3.726562-55.617188 11.105469l12.335938 29.519531c13.695312-5.714844 28.273438-8.625 43.28125-8.625 61.742188 0 112 50.238281 112 112s-50.257812 112-112 112c-54.65625 0-101.039062-39.023438-110.320312-92.800781l-31.535157 5.441406c11.902344 69.167969 71.566407 119.359375 141.839844 119.359375 79.40625 0 144-64.609375 144-144 0-33.953125-11.875-65.136719-31.601563-89.777344l63.601563-63.597656v89.375h32v-144zm0 0" fill="#53bdf2"/><g fill="#ffb6e0"><path d="m271.867188 394.414062 19.28125 25.539063c9.582031-7.234375 18.238281-15.632813 25.726562-24.976563l-24.941406-20.03125c-5.839844 7.277344-12.59375 13.824219-20.066406 19.46875zm0 0"/><path d="m204.429688 416.960938c-61.746094 0-112-50.242188-112-112 0-61.761719 50.253906-112 112-112 54.65625 0 101.039062 39.023437 110.335937 92.800781l31.535156-5.441407c-11.9375-69.167968-71.601562-119.359374-141.855469-119.359374-79.410156 0-144 64.605468-144 144 0 33.453124 11.566407 64.207031 30.78125 88.6875l-31.726562 31.726562-36.6875-36.6875-22.65625 22.625 36.6875 36.6875-36.6875 36.6875 22.625 22.625 36.6875-36.6875 36.6875 36.6875 22.625-22.625-36.6875-36.6875 31.453125-31.457031c24.800781 20.242187 56.433594 32.417969 90.863281 32.417969 19.28125 0 38-3.730469 55.617188-11.105469l-12.335938-29.519531c-13.695312 5.710937-28.253906 8.625-43.261718 8.625zm0 0"/></g></svg>