<svg height="507.312pt" viewBox="0 0 507.312 507.312" width="507.312pt" xmlns="http://www.w3.org/2000/svg"><g fill="#ffb6e0"><path d="m164.910156 94.367188-24.414062-20.6875c-7.40625 8.734374-14.160156 18.207031-20.097656 28.160156l27.472656 16.398437c5.058594-8.445312 10.785156-16.476562 17.039062-23.871093zm0 0"/><path d="m209.472656 56.625-16.335937-27.519531c-9.890625 5.871093-19.375 12.636719-28.191407 20.109375l20.65625 24.433594c7.46875-6.320313 15.503907-12.046876 23.871094-17.023438zm0 0"/><path d="m299.3125 0c-25.855469 0-51.105469 4.6875-75.023438 13.953125l11.550782 29.839844c20.207031-7.824219 41.585937-11.792969 63.472656-11.792969 97.039062 0 176 78.960938 176 176s-78.960938 176-176 176-176-78.960938-176-176c-.015625-21.871094 3.953125-43.214844 11.777344-63.441406l-29.84375-11.550782c-9.261719 23.9375-13.949219 49.167969-13.933594 74.992188 0 51.601562 18.992188 98.769531 50.222656 135.152344l-50.222656 50.222656-60.6875-60.6875-22.625 22.625 60.6875 60.6875-68.6875 68.6875 22.625 22.625 68.6875-68.6875 60.6875 60.6875 22.625-22.625-60.6875-60.6875 50.222656-50.222656c36.382813 31.230468 83.550782 50.222656 135.152344 50.222656 114.6875 0 208-93.3125 208-208s-93.3125-208-208-208zm0 0"/></g></svg>