<svg height="512pt" viewBox="0 0 512 512" width="512pt" xmlns="http://www.w3.org/2000/svg"><g fill="#53bdf2"><path d="m336 0v32h121.375l-114.222656 114.222656c-36.382813-31.230468-83.550782-50.222656-135.152344-50.222656-114.6875 0-208 93.3125-208 208s93.3125 208 208 208c25.855469 0 51.105469-4.6875 75.023438-13.953125l-11.550782-29.839844c-20.207031 7.824219-41.585937 11.792969-63.472656 11.792969-97.039062 0-176-78.960938-176-176s78.960938-176 176-176 176 78.960938 176 176c.015625 21.871094-3.953125 43.214844-11.777344 63.441406l29.839844 11.550782c9.265625-23.9375 13.953125-49.167969 13.9375-74.992188 0-51.601562-18.992188-98.769531-50.222656-135.152344l114.222656-114.222656v121.375h32v-176zm0 0"/><path d="m297.839844 455.375 16.335937 27.519531c9.886719-5.871093 19.375-12.636719 28.191407-20.109375l-20.65625-24.417968c-7.472657 6.304687-15.503907 12.03125-23.871094 17.007812zm0 0"/><path d="m342.398438 417.632812 24.402343 20.6875c7.40625-8.734374 14.160157-18.207031 20.09375-28.144531l-27.46875-16.398437c-5.042969 8.429687-10.769531 16.460937-17.027343 23.855468zm0 0"/></g></svg>